<svg width="40" height="40" viewBox="0 0 40 40" fill="none" xmlns="http://www.w3.org/2000/svg">
<rect width="40" height="40" rx="20" fill="white"/>
<path d="M26.5084 14.2773C26.3734 14.2075 26.242 14.131 26.1147 14.0481C25.7444 13.8033 25.4049 13.5149 25.1035 13.189C24.3494 12.3261 24.0677 11.4508 23.964 10.8379H23.9681C23.8815 10.3292 23.9173 10 23.9227 10H20.4879V23.2818C20.4879 23.4602 20.4879 23.6364 20.4804 23.8106C20.4804 23.8322 20.4783 23.8522 20.4771 23.8756C20.4771 23.8851 20.4771 23.8951 20.475 23.9051V23.9126C20.4388 24.3892 20.286 24.8495 20.0301 25.2532C19.7742 25.6568 19.4231 25.9914 19.0075 26.2275C18.5745 26.4739 18.0846 26.6032 17.5864 26.6025C15.986 26.6025 14.689 25.2976 14.689 23.686C14.689 22.0744 15.986 20.7695 17.5864 20.7695C17.8893 20.7692 18.1904 20.8169 18.4784 20.9107L18.4826 17.4134C17.6082 17.3004 16.7199 17.3699 15.8737 17.6175C15.0275 17.865 14.2418 18.2852 13.5662 18.8516C12.9741 19.366 12.4764 19.9798 12.0954 20.6653C11.9504 20.9153 11.4033 21.9198 11.3371 23.5502C11.2954 24.4755 11.5733 25.4342 11.7058 25.8305V25.8388C11.7892 26.0721 12.1121 26.8683 12.6383 27.5395C13.0626 28.078 13.5639 28.5509 14.1261 28.9432V28.9349L14.1345 28.9432C15.7973 30.0732 17.641 29.999 17.641 29.999C17.9601 29.9861 19.0292 29.999 20.2433 29.4236C21.5899 28.7857 22.3565 27.8354 22.3565 27.8354C22.8463 27.2675 23.2358 26.6204 23.5082 25.9217C23.819 25.1047 23.9227 24.1247 23.9227 23.7331V16.6867C23.9644 16.7117 24.5194 17.0788 24.5194 17.0788C24.5194 17.0788 25.3189 17.5913 26.5663 17.925C27.4613 18.1625 28.6671 18.2125 28.6671 18.2125V14.8027C28.2446 14.8485 27.3867 14.7152 26.5084 14.2773Z" fill="url(#paint0_linear_1_13241)"/>
<defs>
<linearGradient id="paint0_linear_1_13241" x1="11.3329" y1="20.0405" x2="28.6671" y2="20.0405" gradientUnits="userSpaceOnUse">
<stop stop-color="#50C577"/>
<stop offset="1" stop-color="#2DBEFC"/>
</linearGradient>
</defs>
</svg>
