<svg width="40" height="40" viewBox="0 0 40 40" fill="none" xmlns="http://www.w3.org/2000/svg">
<rect width="40" height="40" rx="20" fill="white"/>
<path fill-rule="evenodd" clip-rule="evenodd" d="M27.8252 13.4267C28.6819 13.6574 29.3574 14.3328 29.5879 15.1895C30.0164 16.7545 29.9999 20.0165 29.9999 20.0165C29.9999 20.0165 29.9999 23.2619 29.5881 24.8269C29.3574 25.6836 28.682 26.3591 27.8252 26.5896C26.2602 27.0016 20 27.0016 20 27.0016C20 27.0016 13.7561 27.0016 12.1747 26.5733C11.3179 26.3426 10.6425 25.6671 10.4118 24.8105C10 23.2619 10 20 10 20C10 20 10 16.7545 10.4118 15.1895C10.6424 14.3329 11.3344 13.6409 12.1745 13.4104C13.7396 12.9984 19.9998 12.9984 19.9998 12.9984C19.9998 12.9984 26.2602 12.9984 27.8252 13.4267ZM23.2122 20.0003L18.0063 22.9986V17.0019L23.2122 20.0003Z" fill="url(#paint0_linear_1_13237)"/>
<defs>
<linearGradient id="paint0_linear_1_13237" x1="10" y1="20.0283" x2="30" y2="20.0283" gradientUnits="userSpaceOnUse">
<stop stop-color="#50C577"/>
<stop offset="1" stop-color="#2DBEFC"/>
</linearGradient>
</defs>
</svg>
